# xmcd
#
# Track frame offsets: 
#        150
#        17450
#        37775
#
# Disc length: 897 seconds
#
# Revision: 0
# Processed by: cddbd v1.5.2PL0 Copyright (c) Steve Scherf et al.
# Submitted via: ExactAudioCopyFreeDBPlugin 1.0
#
DISCID=11037f03
DTITLE=Bethelem and Sad Patrick - Oh My City, It's Time For You to Rise 
DTITLE=(EP)
DYEAR=2017
DGENRE=Rhythm and Blues
TTITLE0=Mother of Exiles
TTITLE1=Better Days
TTITLE2=Rise (Oh My City)
EXTD=
EXTT0=
EXTT1=
EXTT2=
PLAYORDER=
